<?xml version="1.0" encoding="UTF-8"?>
<svg version="1.1" xmlns="http://www.w3.org/2000/svg" width="44" height="44">
<path d="M0 0 C6.10249734 4.80029079 9.38333199 11.51621896 11 19 C11.30935686 25.09732392 9.59033183 31.49982405 7 37 C2.22199048 41.77800952 -3.43878708 41.18296608 -9.75 41.1875 C-11.07257812 41.20586914 -11.07257812 41.20586914 -12.421875 41.22460938 C-17.67314232 41.23633095 -22.06259752 40.84018675 -27 39 C-31.28776636 34.56930809 -31.33936579 29.72551888 -31.28515625 23.84765625 C-30.85690104 19.57097064 -29.21296754 16.60942637 -27 13 C-26.68804688 12.35933594 -26.37609375 11.71867188 -26.0546875 11.05859375 C-23.19225691 5.29765152 -19.72388952 3.92612244 -13.875 1.9375 C-12.92625 1.628125 -11.9775 1.31875 -11 1 C-10.360625 0.608125 -9.72125 0.21625 -9.0625 -0.1875 C-5.58786759 -1.55629458 -3.55382103 -1.08421659 0 0 Z " fill="#E2B544" transform="translate(31,1)"/>
<path d="M0 0 C0.66 0 1.32 0 2 0 C5.98044446 8.75697781 4.79850841 15.06608271 2.01171875 24.0546875 C0.71084787 26.55597592 -0.60886868 27.51453336 -3 29 C-5.38183594 29.34057617 -5.38183594 29.34057617 -7.984375 29.29296875 C-8.91894531 29.28330078 -9.85351562 29.27363281 -10.81640625 29.26367188 C-11.78449219 29.23853516 -12.75257812 29.21339844 -13.75 29.1875 C-14.73355469 29.17396484 -15.71710937 29.16042969 -16.73046875 29.14648438 C-19.15420415 29.11118726 -21.57682145 29.06188054 -24 29 C-23.34 28.34 -22.68 27.68 -22 27 C-22.66 26.34 -23.32 25.68 -24 25 C-23 24 -22 23 -21 22 C-20.360625 21.278125 -19.72125 20.55625 -19.0625 19.8125 C-17 18 -17 18 -13 18 C-12.67 20.31 -12.34 22.62 -12 25 C-10.68 24.67 -9.36 24.34 -8 24 C-8.46800711 19.94393835 -8.87953208 16.53411321 -11 13 C-14.68266103 13.59950296 -18.34543185 14.24758891 -22 15 C-21.67 14.13375 -21.34 13.2675 -21 12.375 C-20.01268659 9.04281725 -19.83579026 6.44840462 -20 3 C-16.7 2.34 -13.4 1.68 -10 1 C-10.33 2.98 -10.66 4.96 -11 7 C-8.03 7.495 -8.03 7.495 -5 8 C-5 6.02 -5 4.04 -5 2 C-3.35 2 -1.7 2 0 2 C0 1.34 0 0.68 0 0 Z " fill="#EFC14B" transform="translate(37,12)"/>
<path d="M0 0 C2.83095968 2.33743989 5.25199517 4.75699103 7 8 C6.6875 10.765625 6.6875 10.765625 6 13 C4.35 13 2.7 13 1 13 C1 14.98 1 16.96 1 19 C-0.98 19 -2.96 19 -5 19 C-5.33 17.35 -5.66 15.7 -6 14 C-8.62113708 14 -10.50935112 14.31292445 -13 15 C-12.979375 15.804375 -12.95875 16.60875 -12.9375 17.4375 C-13 20 -13 20 -14 21 C-15.66617115 21.04063832 -17.33388095 21.042721 -19 21 C-19.6875 18.1875 -19.6875 18.1875 -20 15 C-18.5625 13.125 -18.5625 13.125 -17 12 C-17.66 11.34 -18.32 10.68 -19 10 C-19 9.01 -19 8.02 -19 7 C-15.0507432 7.55105909 -11.65079826 8.38935371 -8 10 C-7.67 9.01 -7.34 8.02 -7 7 C-6.34 7 -5.68 7 -5 7 C-4.67 5.68 -4.34 4.36 -4 3 C-3.01 3 -2.02 3 -1 3 C-1.99 2.34 -2.98 1.68 -4 1 C-4.5775 1.350625 -5.155 1.70125 -5.75 2.0625 C-8.35801776 3.14917407 -9.39417629 2.93065133 -12 2 C-7.73478209 -1.23122569 -5.10640666 -1.67278839 0 0 Z " fill="#D1A93E" transform="translate(31,1)"/>
<path d="M0 0 C2.03797068 3.53248251 3.12326143 5.84134254 2.6875 9.9375 C2.460625 10.618125 2.23375 11.29875 2 12 C0.68 12 -0.64 12 -2 12 C-2.33 9.69 -2.66 7.38 -3 5 C-6.78383679 5.92493788 -8.56693694 6.39371171 -10.875 9.625 C-11.431875 10.800625 -11.431875 10.800625 -12 12 C-13.32 11.67 -14.64 11.34 -16 11 C-15.6999825 7.49979578 -15.04266259 6.05095809 -12.75 3.3125 C-8.73311105 -0.06533844 -5.12951878 -2.29478472 0 0 Z " fill="#755204" transform="translate(27,25)"/>
<path d="M0 0 C-0.33 1.65 -0.66 3.3 -1 5 C0.32 5.66 1.64 6.32 3 7 C2.67 7.99 2.34 8.98 2 10 C0.109375 10.6953125 0.109375 10.6953125 -2.25 11.125 C-3.46236328 11.35703125 -3.46236328 11.35703125 -4.69921875 11.59375 C-5.45847656 11.7278125 -6.21773437 11.861875 -7 12 C-8.010625 12.20625 -9.02125 12.4125 -10.0625 12.625 C-10.701875 12.74875 -11.34125 12.8725 -12 13 C-11.67 12.13375 -11.34 11.2675 -11 10.375 C-10.01268659 7.04281725 -9.83579026 4.44840462 -10 1 C-3.375 -1.125 -3.375 -1.125 0 0 Z " fill="#F4C756" transform="translate(27,14)"/>
<path d="M0 0 C3.71888239 0.50712033 6.73454239 1.11608215 10 3 C10 4.32 10 5.64 10 7 C8.68 7.33 7.36 7.66 6 8 C6.020625 8.804375 6.04125 9.60875 6.0625 10.4375 C6 13 6 13 5 14 C3.33382885 14.04063832 1.66611905 14.042721 0 14 C-0.6875 11.1875 -0.6875 11.1875 -1 8 C0.4375 6.125 0.4375 6.125 2 5 C1.34 4.34 0.68 3.68 0 3 C0 2.01 0 1.02 0 0 Z " fill="#794F04" transform="translate(12,8)"/>
<path d="M0 0 C0 0.66 0 1.32 0 2 C-0.99 2.33 -1.98 2.66 -3 3 C-3.33 3.99 -3.66 4.98 -4 6 C-5.25 7.75 -5.25 7.75 -7 9 C-9.93406133 8.85329693 -11.50590576 8.39186784 -13.8125 6.5625 C-15 5 -15 5 -15 3 C-14.42378906 2.86851563 -13.84757812 2.73703125 -13.25390625 2.6015625 C-10.35520723 1.82790626 -7.66642654 0.68000189 -4.90234375 -0.4765625 C-3 -1 -3 -1 0 0 Z " fill="#FBCD55" transform="translate(30,2)"/>
<path d="M0 0 C1.32 0.33 2.64 0.66 4 1 C3.25 5.75 3.25 5.75 1 8 C-1.625 7.625 -1.625 7.625 -4 7 C-3.67 6.01 -3.34 5.02 -3 4 C-2.34 4 -1.68 4 -1 4 C-0.67 2.68 -0.34 1.36 0 0 Z " fill="#7C5305" transform="translate(27,4)"/>
<path d="M0 0 C-0.66 0.66 -1.32 1.32 -2 2 C-2.66 1.67 -3.32 1.34 -4 1 C-3.67 1.99 -3.34 2.98 -3 4 C-4.32 4 -5.64 4 -7 4 C-7 4.99 -7 5.98 -7 7 C-7.66 7 -8.32 7 -9 7 C-9 6.34 -9 5.68 -9 5 C-9.66 5 -10.32 5 -11 5 C-11 6.32 -11 7.64 -11 9 C-11.66 9 -12.32 9 -13 9 C-12.9375 6.75 -12.9375 6.75 -12 4 C-7.93206408 1.10550713 -5.11091701 -0.61950509 0 0 Z " fill="#B98F30" transform="translate(19,4)"/>
<path d="M0 0 C1.2065625 0.0309375 1.2065625 0.0309375 2.4375 0.0625 C2.4375 1.7125 2.4375 3.3625 2.4375 5.0625 C0.7875 5.3925 -0.8625 5.7225 -2.5625 6.0625 C-2.94468767 4.40635343 -3.27645102 2.73792976 -3.5625 1.0625 C-2.5625 0.0625 -2.5625 0.0625 0 0 Z " fill="#7B4F06" transform="translate(28.5625,13.9375)"/>
<path d="M0 0 C0.99 0.33 1.98 0.66 3 1 C1.99489025 4.01532925 1.53844009 5.18682851 -1 7 C-4.34192692 6.75546876 -5.60543557 6.39456443 -8 4 C-6.68 3.34 -5.36 2.68 -4 2 C-4 2.66 -4 3.32 -4 4 C-3.34 4 -2.68 4 -2 4 C-1.34 2.68 -0.68 1.36 0 0 Z " fill="#F2C652" transform="translate(24,4)"/>
<path d="M0 0 C0.66 0 1.32 0 2 0 C2 0.66 2 1.32 2 2 C2.66 2 3.32 2 4 2 C4 2.66 4 3.32 4 4 C3.34 4 2.68 4 2 4 C2 4.99 2 5.98 2 7 C0.68 7 -0.64 7 -2 7 C-2 6.01 -2 5.02 -2 4 C-1.34 4 -0.68 4 0 4 C0 2.68 0 1.36 0 0 Z " fill="#FBCF52" transform="translate(8,9)"/>
<path d="M0 0 C0.99 0.99 1.98 1.98 3 3 C2.01 3.66 1.02 4.32 0 5 C-0.2502157 8.08365871 -0.2502157 8.08365871 0 11 C-0.66 10.67 -1.32 10.34 -2 10 C-2 7.36 -2 4.72 -2 2 C-1.34 2 -0.68 2 0 2 C0 1.34 0 0.68 0 0 Z " fill="#E4B94F" transform="translate(12,11)"/>
<path d="M0 0 C2.31 0 4.62 0 7 0 C7 1.32 7 2.64 7 4 C6.01 4 5.02 4 4 4 C3.67 3.34 3.34 2.68 3 2 C2.01 2 1.02 2 0 2 C0 1.34 0 0.68 0 0 Z " fill="#6E4400" transform="translate(15,11)"/>
<path d="M0 0 C2 3 2 3 1.625 5.6875 C1.41875 6.450625 1.2125 7.21375 1 8 C-0.32 8 -1.64 8 -3 8 C-3 7.34 -3 6.68 -3 6 C-2.01 5.34 -1.02 4.68 0 4 C0 2.68 0 1.36 0 0 Z " fill="#8D610E" transform="translate(28,29)"/>
</svg>
