<?xml version="1.0" encoding="UTF-8"?>
<svg version="1.1" xmlns="http://www.w3.org/2000/svg" width="10%" 
   height="10%"
   preserveAspectRatio="x200Y200 meet"
   viewBox="0 0 500 350">
<path d="M0 0 C200.64 0 401.28 0 608 0 C608 135.3 608 270.6 608 410 C407.36 410 206.72 410 0 410 C0 274.7 0 139.4 0 0 Z " fill="transparent" transform="translate(0,0)"/>
<path d="M0 0 C44.55 0 89.1 0 135 0 C135 10.89 135 21.78 135 33 C146.22 33 157.44 33 169 33 C169 44.55 169 56.1 169 68 C163.410625 68.020625 157.82125 68.04125 152.0625 68.0625 C150.29656494 68.071604 148.53062988 68.08070801 146.71118164 68.09008789 C145.31917395 68.09300714 143.92716541 68.09555567 142.53515625 68.09765625 C141.80615112 68.10277222 141.077146 68.10788818 140.3260498 68.11315918 C138.55029924 68.11347011 136.77465792 68.06228515 135 68 C134.67 67.67 134.34 67.34 134 67 C134 56.11 134 45.22 134 34 C89.78 34 45.56 34 0 34 C0 45.22 0 56.44 0 68 C-11.22 68 -22.44 68 -34 68 C-34 56.45 -34 44.9 -34 33 C-22.78 33 -11.56 33 0 33 C0 22.11 0 11.22 0 0 Z " fill="#010101" transform="translate(210,211)"/>
<path d="M0 0 C11.22 0 22.44 0 34 0 C34 11.22 34 22.44 34 34 C45.22 34 56.44 34 68 34 C68 45.22 68 56.44 68 68 C90.11 68 112.22 68 135 68 C135 79.22 135 90.44 135 102 C112.89 102 90.78 102 68 102 C68 113.22 68 124.44 68 136 C56.45 136 44.9 136 33 136 C33 124.78 33 113.56 33 102 C44.22 102 55.44 102 67 102 C67 90.78 67 79.56 67 68 C55.78 68 44.56 68 33 68 C33 57.11 33 46.22 33 35 C22.11 35 11.22 35 0 35 C0 23.45 0 11.9 0 0 Z " fill="#030303" transform="translate(75,109)"/>
<path d="M0 0 C11.22 0 22.44 0 34 0 C34 11.55 34 23.1 34 35 C22.78 35 11.56 35 0 35 C0 45.89 0 56.78 0 68 C-11.22 68 -22.44 68 -34 68 C-34 56.78 -34 45.56 -34 34 C-22.78 34 -11.56 34 0 34 C0 22.78 0 11.56 0 0 Z " fill="#0F0F0F" transform="translate(446,109)"/>
<path d="M0 0 C22.11 0 44.22 0 67 0 C67 11.22 67 22.44 67 34 C44.89 34 22.78 34 0 34 C0 22.78 0 11.56 0 0 Z " fill="#040404" transform="translate(345,177)"/>
<path d="M0 0 C21.78 0 43.56 0 66 0 C66 10.56 66 21.12 66 32 C44.22 32 22.44 32 0 32 C0 21.44 0 10.88 0 0 Z " fill="#010101" transform="translate(143,178)"/>
<path d="M0 0 C11.22 0 22.44 0 34 0 C34 11.22 34 22.44 34 34 C22.78 34 11.56 34 0 34 C0 22.78 0 11.56 0 0 Z " fill="#060606" transform="translate(412,211)"/>
<path d="M0 0 C10.89 0 21.78 0 33 0 C33 10.89 33 21.78 33 33 C22.11 33 11.22 33 0 33 C0 22.11 0 11.22 0 0 Z " fill="#000000" transform="translate(345,245)"/>
<path d="M0 0 C10.89 0 21.78 0 33 0 C33 10.89 33 21.78 33 33 C22.11 33 11.22 33 0 33 C0 22.11 0 11.22 0 0 Z " fill="#010101" transform="translate(177,245)"/>
<path d="M0 0 C10.89 0 21.78 0 33 0 C33 10.89 33 21.78 33 33 C22.11 33 11.22 33 0 33 C0 22.11 0 11.22 0 0 Z " fill="#030303" transform="translate(109,211)"/>
<path d="M0 0 C10.89 0 21.78 0 33 0 C33 10.89 33 21.78 33 33 C22.11 33 11.22 33 0 33 C0 22.11 0 11.22 0 0 Z " fill="#020202" transform="translate(446,110)"/>
<path d="M0 0 C10.89 0 21.78 0 33 0 C33 10.89 33 21.78 33 33 C22.11 33 11.22 33 0 33 C0 22.11 0 11.22 0 0 Z " fill="#020202" transform="translate(75,110)"/>
<path d="M0 0 C11.22 0 22.44 0 34 0 C34 11.22 34 22.44 34 34 C45.22 34 56.44 34 68 34 C68 45.22 68 56.44 68 68 C90.11 68 112.22 68 135 68 C135 79.22 135 90.44 135 102 C112.89 102 90.78 102 68 102 C68 113.22 68 124.44 68 136 C56.45 136 44.9 136 33 136 C33 124.78 33 113.56 33 102 C33.33 102 33.66 102 34 102 C34 112.89 34 123.78 34 135 C44.89 135 55.78 135 67 135 C67 102 67 69 67 35 C56.11 35 45.22 35 34 35 C34 45.89 34 56.78 34 68 C33.67 68 33.34 68 33 68 C33 57.11 33 46.22 33 35 C22.11 35 11.22 35 0 35 C0 34.67 0 34.34 0 34 C10.89 34 21.78 34 33 34 C33 23.11 33 12.22 33 1 C22.11 1 11.22 1 0 1 C0 0.67 0 0.34 0 0 Z M68 69 C68 79.56 68 90.12 68 101 C89.78 101 111.56 101 134 101 C134 90.44 134 79.88 134 69 C112.22 69 90.44 69 68 69 Z " fill="#494949" transform="translate(75,109)"/>
<path d="M0 0 C0.33 0 0.66 0 1 0 C1 10.89 1 21.78 1 33 C12.22 33 23.44 33 35 33 C35 44.55 35 56.1 35 68 C29.410625 68.020625 23.82125 68.04125 18.0625 68.0625 C16.29656494 68.071604 14.53062988 68.08070801 12.71118164 68.09008789 C11.31917395 68.09300714 9.92716541 68.09555567 8.53515625 68.09765625 C7.80615112 68.10277222 7.077146 68.10788818 6.3260498 68.11315918 C4.55029924 68.11347011 2.77465792 68.06228515 1 68 C0.67 67.67 0.34 67.34 0 67 C0 56.11 0 45.22 0 34 C-55.11 34 -110.22 34 -167 34 C-167 44.89 -167 55.78 -167 67 C-156.11 67 -145.22 67 -134 67 C-134 67.33 -134 67.66 -134 68 C-145.22 68 -156.44 68 -168 68 C-168 56.45 -168 44.9 -168 33 C-112.56 33 -57.12 33 0 33 C0 22.11 0 11.22 0 0 Z M1 34 C1 44.89 1 55.78 1 67 C11.89 67 22.78 67 34 67 C34 56.11 34 45.22 34 34 C23.11 34 12.22 34 1 34 Z " fill="#696969" transform="translate(344,211)"/>
<path d="M0 0 C11.22 0 22.44 0 34 0 C34 11.22 34 22.44 34 34 C45.22 34 56.44 34 68 34 C68 45.22 68 56.44 68 68 C67.67 68 67.34 68 67 68 C67 57.11 67 46.22 67 35 C56.11 35 45.22 35 34 35 C34 45.89 34 56.78 34 68 C33.67 68 33.34 68 33 68 C33 57.11 33 46.22 33 35 C22.11 35 11.22 35 0 35 C0 34.67 0 34.34 0 34 C10.89 34 21.78 34 33 34 C33 23.11 33 12.22 33 1 C22.11 1 11.22 1 0 1 C0 0.67 0 0.34 0 0 Z " fill="#737373" transform="translate(75,109)"/>
<path d="M0 0 C1.32 0 2.64 0 4 0 C4 10.56 4 21.12 4 32 C13.57 32 23.14 32 33 32 C33 32.33 33 32.66 33 33 C22.11 33 11.22 33 0 33 C0 22.11 0 11.22 0 0 Z " fill="#0A0A0A" transform="translate(345,245)"/>
<path d="M0 0 C1.32 0.33 2.64 0.66 4 1 C4.11589162 5.27060618 4.18714802 9.54080984 4.25 13.8125 C4.28351563 15.02744141 4.31703125 16.24238281 4.3515625 17.49414062 C4.36445313 18.65751953 4.37734375 19.82089844 4.390625 21.01953125 C4.41157227 22.09307861 4.43251953 23.16662598 4.45410156 24.27270508 C4 27 4 27 0 30 C0 20.1 0 10.2 0 0 Z " fill="#090909" transform="translate(345,178)"/>
</svg>
