<?xml version="1.0" encoding="UTF-8"?>

<svg version="1.1" xmlns="http://www.w3.org/2000/svg" width="10%" 
   height="10%"
   preserveAspectRatio="x200Y200 meet"
   viewBox="0 0 650 500">
<path d="M0 0 C275.22 0 550.44 0 834 0 C834 187.44 834 374.88 834 568 C558.78 568 283.56 568 0 568 C0 380.56 0 193.12 0 0 Z " fill="transparent" transform="translate(0,0)"/>
<path d="M0 0 C63.03 0 126.06 0 191 0 C191 15.51 191 31.02 191 47 C222.68 47 254.36 47 287 47 C287 62.51 287 78.02 287 94 C302.51 94 318.02 94 334 94 C334 109.84 334 125.68 334 142 C349.51 142 365.02 142 381 142 C381 157.84 381 173.68 381 190 C365.49 190 349.98 190 334 190 C334 205.84 334 221.68 334 238 C318.49 238 302.98 238 287 238 C287.0396079 253.42274686 287.0396079 253.42274686 287.09008789 268.84545898 C287.09300691 270.77067001 287.0955555 272.69588165 287.09765625 274.62109375 C287.10277222 275.63079224 287.10788818 276.64049072 287.11315918 277.68078613 C287.11328003 278.6348938 287.11340088 279.58900146 287.11352539 280.57202148 C287.115746 281.40475082 287.11796661 282.23748016 287.12025452 283.09544373 C287 285 287 285 286 286 C283.07805335 286.09525367 280.17979671 286.12552736 277.25756836 286.11352539 C275.88209587 286.11374443 275.88209587 286.11374443 274.47883606 286.1139679 C271.43248164 286.1132684 268.38618755 286.10547428 265.33984375 286.09765625 C263.23377007 286.0957922 261.12769597 286.09436824 259.0216217 286.09336853 C253.46657117 286.08954231 247.91154659 286.07971114 242.35650635 286.06866455 C235.6977263 286.05665861 229.0389376 286.05204869 222.38014984 286.04621124 C212.25341515 286.03649944 202.12673747 286.0173436 192 286 C192 301.51 192 317.02 192 333 C167.11396292 333.02254453 142.22793407 333.04097771 117.34188938 333.05181217 C105.787737 333.05697576 94.23359139 333.06401965 82.67944336 333.07543945 C72.61275651 333.08538437 62.54607456 333.09185297 52.47938293 333.09408849 C47.14563289 333.09539593 41.81189688 333.09848384 36.47815132 333.10573006 C31.46402341 333.11248725 26.44991541 333.11461758 21.43578339 333.11310768 C19.58982421 333.11338415 17.74386442 333.11539104 15.89790916 333.11920547 C13.3890322 333.12413803 10.88023167 333.12299992 8.37135315 333.12025452 C7.26096572 333.12462378 7.26096572 333.12462378 6.12814623 333.12908131 C1.11412121 333.11412121 1.11412121 333.11412121 0 332 C0 316.49 0 300.98 0 285 C-31.35 285 -62.7 285 -95 285 C-95 269.49 -95 253.98 -95 238 C-110.42274686 238.0396079 -110.42274686 238.0396079 -125.84545898 238.09008789 C-127.77067001 238.09300691 -129.69588165 238.0955555 -131.62109375 238.09765625 C-132.63079224 238.10277222 -133.64049072 238.10788818 -134.68078613 238.11315918 C-136.11194763 238.11334045 -136.11194763 238.11334045 -137.57202148 238.11352539 C-138.40475082 238.115746 -139.23748016 238.11796661 -140.09544373 238.12025452 C-142 238 -142 238 -143 237 C-143.09295815 235.55710213 -143.11746513 234.10970215 -143.11352539 232.66381836 C-143.11340454 231.73001343 -143.11328369 230.7962085 -143.11315918 229.83410645 C-143.10804321 228.84599976 -143.10292725 227.85789307 -143.09765625 226.83984375 C-143.09664917 225.93657349 -143.09564209 225.03330322 -143.09460449 224.10266113 C-143.08935512 220.71426126 -143.07539398 217.32587941 -143.0625 213.9375 C-143.041875 206.368125 -143.02125 198.79875 -143 191 C-158.51 191 -174.02 191 -190 191 C-190 174.5 -190 158 -190 141 C-174.49 141 -158.98 141 -143 141 C-143.03960749 125.90635432 -143.03960749 125.90635432 -143.09008789 110.81274414 C-143.09300692 108.92854875 -143.09555551 107.04435273 -143.09765625 105.16015625 C-143.10277222 104.17204956 -143.10788818 103.18394287 -143.11315918 102.16589355 C-143.11334045 100.76518616 -143.11334045 100.76518616 -143.11352539 99.33618164 C-143.115746 98.52121719 -143.11796661 97.70625275 -143.12025452 96.86659241 C-143 95 -143 95 -142 94 C-140.52645652 93.90695982 -139.04849409 93.88253735 -137.57202148 93.88647461 C-136.14085999 93.88665588 -136.14085999 93.88665588 -134.68078613 93.88684082 C-133.67108765 93.89195679 -132.66138916 93.89707275 -131.62109375 93.90234375 C-130.69816528 93.90335083 -129.77523682 93.90435791 -128.82434082 93.90539551 C-125.36204799 93.91064506 -121.8997728 93.92460619 -118.4375 93.9375 C-110.703125 93.958125 -102.96875 93.97875 -95 94 C-95 78.49 -95 62.98 -95 47 C-63.65 47 -32.3 47 0 47 C0 31.49 0 15.98 0 0 Z " fill="transparent" transform="translate(317,126)"/>
<path d="M0 0 C63.03 0 126.06 0 191 0 C191 15.51 191 31.02 191 47 C222.68 47 254.36 47 287 47 C287 62.51 287 78.02 287 94 C302.51 94 318.02 94 334 94 C334 109.84 334 125.68 334 142 C349.51 142 365.02 142 381 142 C381 157.84 381 173.68 381 190 C365.49 190 349.98 190 334 190 C334 205.84 334 221.68 334 238 C318.49 238 302.98 238 287 238 C287.0396079 253.42274686 287.0396079 253.42274686 287.09008789 268.84545898 C287.09300691 270.77067001 287.0955555 272.69588165 287.09765625 274.62109375 C287.10277222 275.63079224 287.10788818 276.64049072 287.11315918 277.68078613 C287.11328003 278.6348938 287.11340088 279.58900146 287.11352539 280.57202148 C287.115746 281.40475082 287.11796661 282.23748016 287.12025452 283.09544373 C287 285 287 285 286 286 C283.07805335 286.09525367 280.17979671 286.12552736 277.25756836 286.11352539 C275.88209587 286.11374443 275.88209587 286.11374443 274.47883606 286.1139679 C271.43248164 286.1132684 268.38618755 286.10547428 265.33984375 286.09765625 C263.23377007 286.0957922 261.12769597 286.09436824 259.0216217 286.09336853 C253.46657117 286.08954231 247.91154659 286.07971114 242.35650635 286.06866455 C235.6977263 286.05665861 229.0389376 286.05204869 222.38014984 286.04621124 C212.25341515 286.03649944 202.12673747 286.0173436 192 286 C192 301.51 192 317.02 192 333 C167.11396292 333.02254453 142.22793407 333.04097771 117.34188938 333.05181217 C105.787737 333.05697576 94.23359139 333.06401965 82.67944336 333.07543945 C72.61275651 333.08538437 62.54607456 333.09185297 52.47938293 333.09408849 C47.14563289 333.09539593 41.81189688 333.09848384 36.47815132 333.10573006 C31.46402341 333.11248725 26.44991541 333.11461758 21.43578339 333.11310768 C19.58982421 333.11338415 17.74386442 333.11539104 15.89790916 333.11920547 C13.3890322 333.12413803 10.88023167 333.12299992 8.37135315 333.12025452 C7.26096572 333.12462378 7.26096572 333.12462378 6.12814623 333.12908131 C1.11412121 333.11412121 1.11412121 333.11412121 0 332 C0 316.49 0 300.98 0 285 C-31.35 285 -62.7 285 -95 285 C-95 269.49 -95 253.98 -95 238 C-110.42274686 238.0396079 -110.42274686 238.0396079 -125.84545898 238.09008789 C-127.77067001 238.09300691 -129.69588165 238.0955555 -131.62109375 238.09765625 C-132.63079224 238.10277222 -133.64049072 238.10788818 -134.68078613 238.11315918 C-136.11194763 238.11334045 -136.11194763 238.11334045 -137.57202148 238.11352539 C-138.40475082 238.115746 -139.23748016 238.11796661 -140.09544373 238.12025452 C-142 238 -142 238 -143 237 C-143.09295815 235.55710213 -143.11746513 234.10970215 -143.11352539 232.66381836 C-143.11340454 231.73001343 -143.11328369 230.7962085 -143.11315918 229.83410645 C-143.10804321 228.84599976 -143.10292725 227.85789307 -143.09765625 226.83984375 C-143.09664917 225.93657349 -143.09564209 225.03330322 -143.09460449 224.10266113 C-143.08935512 220.71426126 -143.07539398 217.32587941 -143.0625 213.9375 C-143.041875 206.368125 -143.02125 198.79875 -143 191 C-158.51 191 -174.02 191 -190 191 C-190 174.5 -190 158 -190 141 C-174.49 141 -158.98 141 -143 141 C-143.03960749 125.90635432 -143.03960749 125.90635432 -143.09008789 110.81274414 C-143.09300692 108.92854875 -143.09555551 107.04435273 -143.09765625 105.16015625 C-143.10277222 104.17204956 -143.10788818 103.18394287 -143.11315918 102.16589355 C-143.11334045 100.76518616 -143.11334045 100.76518616 -143.11352539 99.33618164 C-143.115746 98.52121719 -143.11796661 97.70625275 -143.12025452 96.86659241 C-143 95 -143 95 -142 94 C-140.52645652 93.90695982 -139.04849409 93.88253735 -137.57202148 93.88647461 C-136.14085999 93.88665588 -136.14085999 93.88665588 -134.68078613 93.88684082 C-133.67108765 93.89195679 -132.66138916 93.89707275 -131.62109375 93.90234375 C-130.69816528 93.90335083 -129.77523682 93.90435791 -128.82434082 93.90539551 C-125.36204799 93.91064506 -121.8997728 93.92460619 -118.4375 93.9375 C-110.703125 93.958125 -102.96875 93.97875 -95 94 C-95 78.49 -95 62.98 -95 47 C-63.65 47 -32.3 47 0 47 C0 31.49 0 15.98 0 0 Z M1 47 C1 62.84 1 78.68 1 95 C-30.35 95 -61.7 95 -94 95 C-94.33 110.51 -94.66 126.02 -95 142 C-110.51 142.33 -126.02 142.66 -142 143 C-142 158.18 -142 173.36 -142 189 C-126.16 189 -110.32 189 -94 189 C-94 204.84 -94 220.68 -94 237 C-62.65 237 -31.3 237 1 237 C1 252.51 1 268.02 1 284 C63.37 284 125.74 284 190 284 C190 268.49 190 252.98 190 237 C221.68 237 253.36 237 286 237 C286 221.16 286 205.32 286 189 C301.51 189 317.02 189 333 189 C333 173.82 333 158.64 333 143 C317.49 143 301.98 143 286 143 C286 127.16 286 111.32 286 95 C254.65 95 223.3 95 191 95 C191 79.16 191 63.32 191 47 C128.3 47 65.6 47 1 47 Z " fill="#020202" transform="translate(317,126)"/>
<path d="M0 0 C15.654375 -0.020625 31.30875 -0.04125 47.4375 -0.0625 C52.38806396 -0.071604 57.33862793 -0.08070801 62.43920898 -0.09008789 C68.46496582 -0.09460449 68.46496582 -0.09460449 71.28211975 -0.09544373 C73.25791143 -0.09698354 75.23370214 -0.10050922 77.20948792 -0.10557556 C80.19493249 -0.11285096 83.18031943 -0.11390749 86.16577148 -0.11352539 C87.05216781 -0.1171235 87.93856413 -0.12072161 88.85182095 -0.12442875 C94.88597366 -0.11402634 94.88597366 -0.11402634 96 1 C96.09526915 3.95249757 96.12551146 6.88145232 96.11352539 9.83422852 C96.11364593 10.77600669 96.11376646 11.71778486 96.11389065 12.68810177 C96.11314129 15.75172688 96.10551202 18.81529195 96.09765625 21.87890625 C96.0961869 23.76428193 96.09516615 25.64965801 96.09460449 27.53503418 C96.08935078 34.54419565 96.07538971 41.55334841 96.0625 48.5625 C96.041875 64.216875 96.02125 79.87125 96 96 C64.32 96 32.64 96 0 96 C0 64.32 0 32.64 0 0 Z " fill="#050505" transform="translate(365,244)"/>
<path d="M0 0 C62.37 0 124.74 0 189 0 C189 15.18 189 30.36 189 46 C126.63 46 64.26 46 0 46 C0 30.82 0 15.64 0 0 Z " fill="#010101" transform="translate(318,412)"/>
<path d="M0 0 C62.04 0 124.08 0 188 0 C188 14.85 188 29.7 188 45 C126.29 45 64.58 45 1 45 C-3.74458756 30.76623732 0 15.00370325 0 0 Z " fill="#010101" transform="translate(319,127)"/>
<path d="M0 0 C31.35 0 62.7 0 95 0 C95 15.51 95 31.02 95 47 C63.65 47 32.3 47 0 47 C0 31.49 0 15.98 0 0 Z " fill="#010101" transform="translate(508,364)"/>
<path d="M0 0 C31.35 0 62.7 0 95 0 C95 15.51 95 31.02 95 47 C63.65 47 32.3 47 0 47 C0 31.49 0 15.98 0 0 Z " fill="#010101" transform="translate(508,173)"/>
<path d="M0 0 C31.02 0 62.04 0 94 0 C94 15.51 94 31.02 94 47 C62.98 47 31.96 47 0 47 C0 31.49 0 15.98 0 0 Z " fill="#010101" transform="translate(223,364)"/>
<path d="M0 0 C31.02 0 62.04 0 94 0 C94 15.51 94 31.02 94 47 C62.98 47 31.96 47 0 47 C0 31.49 0 15.98 0 0 Z " fill="#010101" transform="translate(223,173)"/>
<path d="M0 0 C15.51 0 31.02 0 47 0 C47 15.84 47 31.68 47 48 C31.49 48 15.98 48 0 48 C0 32.16 0 16.32 0 0 Z " fill="#050505" transform="translate(651,268)"/>
<path d="M0 0 C15.51 0 31.02 0 47 0 C47 15.84 47 31.68 47 48 C31.49 48 15.98 48 0 48 C0 32.16 0 16.32 0 0 Z " fill="#060606" transform="translate(127,268)"/>
<path d="M0 0 C15.51 0 31.02 0 47 0 C47 15.51 47 31.02 47 47 C31.49 47 15.98 47 0 47 C0 31.49 0 15.98 0 0 Z " fill="#020202" transform="translate(604,316)"/>
<path d="M0 0 C15.51 0 31.02 0 47 0 C47 15.51 47 31.02 47 47 C31.49 47 15.98 47 0 47 C0 31.49 0 15.98 0 0 Z " fill="#020202" transform="translate(175,316)"/>
<path d="M0 0 C15.18 0 30.36 0 46 0 C46 15.51 46 31.02 46 47 C30.82 47 15.64 47 0 47 C0 31.49 0 15.98 0 0 Z " fill="#030303" transform="translate(604,221)"/>
<path d="M0 0 C0.33 0 0.66 0 1 0 C1 15.51 1 31.02 1 47 C16.51 47 32.02 47 48 47 C48 78.68 48 110.36 48 143 C32.49 143 16.98 143 1 143 C1 158.51 1 174.02 1 190 C16.51 190 32.02 190 48 190 C48 190.33 48 190.66 48 191 C32.49 191 16.98 191 1 191 C1.0396079 206.42274686 1.0396079 206.42274686 1.09008789 221.84545898 C1.09300691 223.77067001 1.0955555 225.69588165 1.09765625 227.62109375 C1.10277222 228.63079224 1.10788818 229.64049072 1.11315918 230.68078613 C1.11328003 231.6348938 1.11340088 232.58900146 1.11352539 233.57202148 C1.115746 234.40475082 1.11796661 235.23748016 1.12025452 236.09544373 C1 238 1 238 0 239 C-2.92194665 239.09525367 -5.82020329 239.12552736 -8.74243164 239.11352539 C-10.11790413 239.11374443 -10.11790413 239.11374443 -11.52116394 239.1139679 C-14.56751836 239.1132684 -17.61381245 239.10547428 -20.66015625 239.09765625 C-22.76622993 239.0957922 -24.87230403 239.09436824 -26.9783783 239.09336853 C-32.53342883 239.08954231 -38.08845341 239.07971114 -43.64349365 239.06866455 C-50.3022737 239.05665861 -56.9610624 239.05204869 -63.61985016 239.04621124 C-73.74658485 239.03649944 -83.87326253 239.0173436 -94 239 C-94 254.51 -94 270.02 -94 286 C-118.88603708 286.02254453 -143.77206593 286.04097771 -168.65811062 286.05181217 C-180.212263 286.05697576 -191.76640861 286.06401965 -203.32055664 286.07543945 C-213.38724349 286.08538437 -223.45392544 286.09185297 -233.52061707 286.09408849 C-238.85436711 286.09539593 -244.18810312 286.09848384 -249.52184868 286.10573006 C-254.53597659 286.11248725 -259.55008459 286.11461758 -264.56421661 286.11310768 C-266.41017579 286.11338415 -268.25613558 286.11539104 -270.10209084 286.11920547 C-272.6109678 286.12413803 -275.11976833 286.12299992 -277.62864685 286.12025452 C-278.73903428 286.12462378 -278.73903428 286.12462378 -279.87185377 286.12908131 C-284.88587879 286.11412121 -284.88587879 286.11412121 -286 285 C-286.0952548 282.07801897 -286.1255143 279.17982893 -286.11352539 276.25756836 C-286.11364593 275.32570237 -286.11376646 274.39383638 -286.11389065 273.43373203 C-286.1131413 270.40241207 -286.10551209 267.37115278 -286.09765625 264.33984375 C-286.0961869 262.47432485 -286.09516615 260.60880553 -286.09460449 258.74328613 C-286.08935082 251.80801782 -286.07538975 244.87275832 -286.0625 237.9375 C-286.041875 222.448125 -286.02125 206.95875 -286 191 C-317.02 191 -348.04 191 -380 191 C-380 206.51 -380 222.02 -380 238 C-380.33 238 -380.66 238 -381 238 C-381 222.49 -381 206.98 -381 191 C-396.42274686 191.0396079 -396.42274686 191.0396079 -411.84545898 191.09008789 C-413.77067001 191.09300691 -415.69588165 191.0955555 -417.62109375 191.09765625 C-418.63079224 191.10277222 -419.64049072 191.10788818 -420.68078613 191.11315918 C-422.11194763 191.11334045 -422.11194763 191.11334045 -423.57202148 191.11352539 C-424.40475082 191.115746 -425.23748016 191.11796661 -426.09544373 191.12025452 C-428 191 -428 191 -429 190 C-429.09295815 188.55710213 -429.11746513 187.10970215 -429.11352539 185.66381836 C-429.11340454 184.73001343 -429.11328369 183.7962085 -429.11315918 182.83410645 C-429.10804321 181.84599976 -429.10292725 180.85789307 -429.09765625 179.83984375 C-429.09664917 178.93657349 -429.09564209 178.03330322 -429.09460449 177.10266113 C-429.08935512 173.71426126 -429.07539398 170.32587941 -429.0625 166.9375 C-429.041875 159.368125 -429.02125 151.79875 -429 144 C-444.51 144 -460.02 144 -476 144 C-476 143.67 -476 143.34 -476 143 C-460.49 143 -444.98 143 -429 143 C-429 127.16 -429 111.32 -429 95 C-444.51 95 -460.02 95 -476 95 C-476 94.67 -476 94.34 -476 94 C-460.49 94 -444.98 94 -429 94 C-429 78.82 -429 63.64 -429 48 C-428.67 48 -428.34 48 -428 48 C-428 63.51 -428 79.02 -428 95 C-412.49 95 -396.98 95 -381 95 C-381 95.33 -381 95.66 -381 96 C-396.51 96 -412.02 96 -428 96 C-428 111.18 -428 126.36 -428 142 C-412.16 142 -396.32 142 -380 142 C-380 157.84 -380 173.68 -380 190 C-348.65 190 -317.3 190 -285 190 C-285 205.51 -285 221.02 -285 237 C-222.63 237 -160.26 237 -96 237 C-96 221.49 -96 205.98 -96 190 C-64.32 190 -32.64 190 0 190 C0 174.16 0 158.32 0 142 C15.51 142 31.02 142 47 142 C47 126.82 47 111.64 47 96 C31.49 96 15.98 96 0 96 C0 80.16 0 64.32 0 48 C-31.35 48 -62.7 48 -95 48 C-95 47.67 -95 47.34 -95 47 C-63.65 47 -32.3 47 0 47 C0 31.49 0 15.98 0 0 Z M1 48 C1 63.51 1 79.02 1 95 C16.18 95 31.36 95 47 95 C47 79.49 47 63.98 47 48 C31.82 48 16.64 48 1 48 Z M-428 143 C-428 158.51 -428 174.02 -428 190 C-412.49 190 -396.98 190 -381 190 C-381 174.49 -381 158.98 -381 143 C-396.51 143 -412.02 143 -428 143 Z M-95 191 C-95 206.51 -95 222.02 -95 238 C-63.65 238 -32.3 238 0 238 C0 222.49 0 206.98 0 191 C-31.35 191 -62.7 191 -95 191 Z M-285 239 C-285 254.18 -285 269.36 -285 285 C-222.63 285 -160.26 285 -96 285 C-96 269.82 -96 254.64 -96 239 C-158.37 239 -220.74 239 -285 239 Z " fill="#717171" transform="translate(603,173)"/>
<path d="M0 0 C0.33 0 0.66 0 1 0 C1 15.51 1 31.02 1 47 C16.51 47 32.02 47 48 47 C48 78.68 48 110.36 48 143 C32.49 143 16.98 143 1 143 C1 158.51 1 174.02 1 190 C16.51 190 32.02 190 48 190 C48 190.33 48 190.66 48 191 C32.49 191 16.98 191 1 191 C1 206.51 1 222.02 1 238 C0.67 238 0.34 238 0 238 C0 222.49 0 206.98 0 191 C-31.35 191 -62.7 191 -95 191 C-95 206.51 -95 222.02 -95 238 C-157.7 238 -220.4 238 -285 238 C-285 237.67 -285 237.34 -285 237 C-222.63 237 -160.26 237 -96 237 C-96 221.49 -96 205.98 -96 190 C-64.32 190 -32.64 190 0 190 C0 174.16 0 158.32 0 142 C15.51 142 31.02 142 47 142 C47 126.82 47 111.64 47 96 C31.49 96 15.98 96 0 96 C0 80.16 0 64.32 0 48 C-31.35 48 -62.7 48 -95 48 C-95 47.67 -95 47.34 -95 47 C-63.65 47 -32.3 47 0 47 C0 31.49 0 15.98 0 0 Z M1 48 C1 63.51 1 79.02 1 95 C16.18 95 31.36 95 47 95 C47 79.49 47 63.98 47 48 C31.82 48 16.64 48 1 48 Z " fill="#919191" transform="translate(603,173)"/>
<path d="M0 0 C63.03 0 126.06 0 191 0 C191 15.51 191 31.02 191 47 C128.3 47 65.6 47 1 47 C1 62.84 1 78.68 1 95 C-30.35 95 -61.7 95 -94 95 C-94 110.51 -94 126.02 -94 142 C-94.33 142 -94.66 142 -95 142 C-95 126.49 -95 110.98 -95 95 C-110.51 95 -126.02 95 -142 95 C-142 94.67 -142 94.34 -142 94 C-126.49 94 -110.98 94 -95 94 C-95 78.49 -95 62.98 -95 47 C-94.67 47 -94.34 47 -94 47 C-94 62.51 -94 78.02 -94 94 C-62.98 94 -31.96 94 0 94 C0 62.98 0 31.96 0 0 Z M2 1 C0.12770622 23.88497028 0.12770622 23.88497028 3 46 C64.71 46 126.42 46 190 46 C190 31.15 190 16.3 190 1 C127.96 1 65.92 1 2 1 Z " fill="#232323" transform="translate(317,126)"/>
<path d="M0 0 C0.33 0 0.66 0 1 0 C1 31.35 1 62.7 1 95 C-30.35 95 -61.7 95 -94 95 C-94 110.51 -94 126.02 -94 142 C-94.33 142 -94.66 142 -95 142 C-95 126.49 -95 110.98 -95 95 C-110.51 95 -126.02 95 -142 95 C-142 94.67 -142 94.34 -142 94 C-126.49 94 -110.98 94 -95 94 C-95 78.49 -95 62.98 -95 47 C-94.67 47 -94.34 47 -94 47 C-94 62.51 -94 78.02 -94 94 C-62.98 94 -31.96 94 0 94 C0 62.98 0 31.96 0 0 Z " fill="#5C5C5C" transform="translate(317,126)"/>
<path d="M0 0 C0.33 0 0.66 0 1 0 C1 15.51 1 31.02 1 47 C16.51 47 32.02 47 48 47 C48 62.84 48 78.68 48 95 C47.67 95 47.34 95 47 95 C47 79.49 47 63.98 47 48 C31.82 48 16.64 48 1 48 C1 63.51 1 79.02 1 95 C0.67 95 0.34 95 0 95 C0 79.49 0 63.98 0 48 C-31.35 48 -62.7 48 -95 48 C-95 47.67 -95 47.34 -95 47 C-63.65 47 -32.3 47 0 47 C0 31.49 0 15.98 0 0 Z " fill="#5F5F5F" transform="translate(603,173)"/>
<path d="M0 0 C0.99 0 1.98 0 3 0 C3 15.18 3 30.36 3 46 C1.68 46 0.36 46 -1 46 C-2.14873991 41.88223886 -2.14388987 37.90356552 -2.1328125 33.65625 C-2.13376923 32.85014282 -2.13472595 32.04403564 -2.13571167 31.21350098 C-2.13639097 29.51228762 -2.13455413 27.81107164 -2.13037109 26.10986328 C-2.12501931 23.50938075 -2.13032454 20.90907093 -2.13671875 18.30859375 C-2.13605792 16.65364545 -2.13477667 14.99869726 -2.1328125 13.34375 C-2.13483673 12.56761353 -2.13686096 11.79147705 -2.13894653 10.99182129 C-2.1004242 2.1004242 -2.1004242 2.1004242 0 0 Z " fill="#F5F5F5" transform="translate(647,269)"/>
<path d="M0 0 C0.33 0 0.66 0 1 0 C1 15.51 1 31.02 1 47 C1.99 47.33 2.98 47.66 4 48 C3.01 48 2.02 48 1 48 C1 63.51 1 79.02 1 95 C0.67 95 0.34 95 0 95 C0 79.49 0 63.98 0 48 C-15.51 48 -31.02 48 -47 48 C-47 47.67 -47 47.34 -47 47 C-31.49 47 -15.98 47 0 47 C0 31.49 0 15.98 0 0 Z " fill="#6D6D6D" transform="translate(222,173)"/>
<path d="M0 0 C15.51 0 31.02 0 47 0 C47 15.51 47 31.02 47 47 C46.01 46.505 46.01 46.505 45 46 C45 31.48 45 16.96 45 2 C30.15 1.67 15.3 1.34 0 1 C0 0.67 0 0.34 0 0 Z " fill="#272727" transform="translate(604,316)"/>
<path d="M0 0 C1.32 0.33 2.64 0.66 4 1 C3.67 14.86 3.34 28.72 3 43 C2.01 43 1.02 43 0 43 C0 28.81 0 14.62 0 0 Z " fill="#080808" transform="translate(128,272)"/>
</svg>
