<?xml version="1.0" encoding="UTF-8"?>
<svg version="1.1" xmlns="http://www.w3.org/2000/svg" width="96" height="96">
<path d="M0 0 C2.4375 0.8125 2.4375 0.8125 4.4375 2.8125 C4.6328125 5.6328125 4.6328125 5.6328125 4.5625 8.9375 C4.54445312 10.03320312 4.52640625 11.12890625 4.5078125 12.2578125 C4.48460937 13.10085937 4.46140625 13.94390625 4.4375 14.8125 C5.0975 14.4825 5.7575 14.1525 6.4375 13.8125 C7.04529107 11.04817616 7.39633508 8.28049038 7.77734375 5.4765625 C8.4852379 2.61985356 9.04821771 1.49665264 11.4375 -0.1875 C14.125 0.125 14.125 0.125 16.4375 0.8125 C16.9325 2.2975 16.9325 2.2975 17.4375 3.8125 C19.0875 3.4825 20.7375 3.1525 22.4375 2.8125 C22.4375 2.1525 22.4375 1.4925 22.4375 0.8125 C34.25815424 0.03368676 34.25815424 0.03368676 38.75 3 C40.5705368 6.034228 41.16414893 7.36091758 40.4375 10.8125 C39.125 12.625 39.125 12.625 37.4375 13.8125 C36.4475 13.8125 35.4575 13.8125 34.4375 13.8125 C34.4375 18.1025 34.4375 22.3925 34.4375 26.8125 C35.9225 27.3075 35.9225 27.3075 37.4375 27.8125 C37.4375 28.4725 37.4375 29.1325 37.4375 29.8125 C38.0975 29.8125 38.7575 29.8125 39.4375 29.8125 C40.241875 28.8225 41.04625 27.8325 41.875 26.8125 C43.1434375 25.3275 43.1434375 25.3275 44.4375 23.8125 C45.4275 23.8125 46.4175 23.8125 47.4375 23.8125 C46.6125 23.131875 45.7875 22.45125 44.9375 21.75 C42.4375 18.8125 42.4375 18.8125 41.9375 15.375 C42.71039363 9.86813286 44.38167822 6.38738945 48.6875 2.875 C51.50503839 1.04419446 52.53663108 0.80737253 56.0625 0.625 C60.48842678 2.18227053 61.77357134 4.01841979 64.4375 7.8125 C62.9375 10.8125 62.9375 10.8125 61.4375 13.8125 C60.7775 13.8125 60.1175 13.8125 59.4375 13.8125 C60.2625 14.740625 61.0875 15.66875 61.9375 16.625 C64.82885474 20.70934925 65.22305981 24.2157505 64.9921875 29.15234375 C64.08105868 33.52191225 61.8716814 36.0733315 58.4375 38.8125 C55.31737127 40.73257922 53.68185496 40.81694282 50 40.75 C45.5802402 39.58690532 43.7150144 37.93013565 40.4375 34.8125 C39.880625 35.6375 39.32375 36.4625 38.75 37.3125 C35.79107803 40.33145807 32.91346998 40.23935003 28.8125 40.3125 C22.99133798 40.25921705 22.99133798 40.25921705 20.5390625 38.28125 C20.17554688 37.7965625 19.81203125 37.311875 19.4375 36.8125 C18.1175 37.8025 16.7975 38.7925 15.4375 39.8125 C15.91960938 40.13863281 16.40171875 40.46476562 16.8984375 40.80078125 C17.53007813 41.23777344 18.16171875 41.67476562 18.8125 42.125 C19.43898437 42.55425781 20.06546875 42.98351563 20.7109375 43.42578125 C22.4375 44.8125 22.4375 44.8125 24.4375 47.8125 C25.0975 46.4925 25.7575 45.1725 26.4375 43.8125 C27.0975 43.8125 27.7575 43.8125 28.4375 43.8125 C28.4375 43.1525 28.4375 42.4925 28.4375 41.8125 C30.4175 41.3175 30.4175 41.3175 32.4375 40.8125 C34.5 42.9375 34.5 42.9375 36.4375 45.8125 C36.125 49 36.125 49 35.4375 51.8125 C35.7675 52.4725 36.0975 53.1325 36.4375 53.8125 C37.0975 53.8125 37.7575 53.8125 38.4375 53.8125 C38.4375 50.8425 38.4375 47.8725 38.4375 44.8125 C39.7575 44.1525 41.0775 43.4925 42.4375 42.8125 C42.4375 42.1525 42.4375 41.4925 42.4375 40.8125 C46.09066671 42.06226756 47.21815836 42.48348753 49.4375 45.8125 C49.703125 48.1171875 49.703125 48.1171875 49.6875 50.6875 C49.69523437 51.95207031 49.69523437 51.95207031 49.703125 53.2421875 C49.4375 55.8125 49.4375 55.8125 48.3828125 58.22265625 C46.84587373 62.43336039 47.92450012 66.39655824 48.5390625 70.75390625 C48.4375 73.8125 48.4375 73.8125 46.4609375 76.21484375 C45.79320313 76.74207031 45.12546875 77.26929687 44.4375 77.8125 C41.48340299 76.44095496 38.99741624 74.82386276 36.4375 72.8125 C33.9625 75.7825 33.9625 75.7825 31.4375 78.8125 C27.86645561 76.93300295 25.89005699 75.64196843 24.4375 71.8125 C23.6125 72.616875 22.7875 73.42125 21.9375 74.25 C18.25637726 77.36750586 15.17396089 77.56751064 10.4375 77.8125 C10.4375 77.1525 10.4375 76.4925 10.4375 75.8125 C9.4475 75.8125 8.4575 75.8125 7.4375 75.8125 C6.56786913 72.81543305 6.31986901 70.16293474 6.33984375 67.046875 C6.34306641 66.15742187 6.34628906 65.26796875 6.34960938 64.3515625 C6.36217773 62.97097656 6.36217773 62.97097656 6.375 61.5625 C6.37951172 60.62664062 6.38402344 59.69078125 6.38867188 58.7265625 C6.40043082 56.42180959 6.41686574 54.11718773 6.4375 51.8125 C5.7775 51.8125 5.1175 51.8125 4.4375 51.8125 C4.1075 52.8025 3.7775 53.7925 3.4375 54.8125 C3.1075 54.4825 2.7775 54.1525 2.4375 53.8125 C1.4475 55.7925 0.4575 57.7725 -0.5625 59.8125 C0.0975 59.8125 0.7575 59.8125 1.4375 59.8125 C1.54544277 62.08229665 1.62306176 64.35355196 1.6875 66.625 C1.73390625 67.88957031 1.7803125 69.15414062 1.828125 70.45703125 C1.4375 73.8125 1.4375 73.8125 -0.44921875 75.76953125 C-2.5625 76.8125 -2.5625 76.8125 -4.625 76.6875 C-6.9952654 75.61705756 -8.01658607 74.93434266 -9.5625 72.8125 C-9.80773423 70.2200238 -9.89116939 67.89383939 -9.8125 65.3125 C-9.80734375 64.63574219 -9.8021875 63.95898438 -9.796875 63.26171875 C-9.74845218 60.19292263 -9.53888936 57.74166808 -8.5625 54.8125 C-9.325625 54.565 -10.08875 54.3175 -10.875 54.0625 C-13.85411079 52.67686708 -15.03274685 51.70203373 -16.5625 48.8125 C-16.41070956 46.30795777 -15.76389201 45.09444882 -14.3125 43.0625 C-11.96563082 41.38616487 -10.38819802 41.59513861 -7.5625 41.8125 C-6.9025 41.8125 -6.2425 41.8125 -5.5625 41.8125 C-3.06320698 42.05633347 -0.56708817 42.32543978 1.9296875 42.59375 C6.97886081 43.04888282 6.97886081 43.04888282 11.4375 40.8125 C10.798125 40.1525 10.15875 39.4925 9.5 38.8125 C6.84837498 34.95559088 6.75082879 32.43409967 6.4375 27.8125 C5.7775 27.8125 5.1175 27.8125 4.4375 27.8125 C4.47230469 28.49957031 4.50710937 29.18664062 4.54296875 29.89453125 C4.57003906 30.79558594 4.59710938 31.69664063 4.625 32.625 C4.67720703 33.96498047 4.67720703 33.96498047 4.73046875 35.33203125 C4.4375 37.8125 4.4375 37.8125 3.08203125 39.61328125 C0.74180639 41.31981102 -0.7352588 41.23658618 -3.5625 40.8125 C-5.2421875 39.578125 -5.2421875 39.578125 -6.5625 37.8125 C-6.6015625 35.5859375 -6.6015625 35.5859375 -6.1875 33.1875 C-5.94760606 31.73402493 -5.73157855 30.27590402 -5.5625 28.8125 C-5.8925 28.4825 -6.2225 28.1525 -6.5625 27.8125 C-6.79903523 25.28653741 -6.98423692 22.78142793 -7.125 20.25 C-7.16818359 19.53908203 -7.21136719 18.82816406 -7.25585938 18.09570312 C-7.36221777 16.33488088 -7.46288846 14.5737168 -7.5625 12.8125 C-7.8925 13.1425 -8.2225 13.4725 -8.5625 13.8125 C-10.22867115 13.85313832 -11.89638095 13.855221 -13.5625 13.8125 C-13.40241455 14.39136963 -13.2423291 14.97023926 -13.07739258 15.56665039 C-12.26798686 19.09710235 -12.29616644 22.64593988 -12.25 26.25 C-12.22099609 27.00087891 -12.19199219 27.75175781 -12.16210938 28.52539062 C-12.11762437 32.41611745 -12.32675268 34.40813871 -14.33203125 37.84765625 C-16.5625 39.8125 -16.5625 39.8125 -20.5625 39.8125 C-23.0316694 37.52643754 -23.52887079 36.15865665 -23.85546875 32.796875 C-23.80326172 31.19585937 -23.80326172 31.19585937 -23.75 29.5625 C-23.72292969 28.48484375 -23.69585938 27.4071875 -23.66796875 26.296875 C-23.61576172 25.06710938 -23.61576172 25.06710938 -23.5625 23.8125 C-23.8925 23.8125 -24.2225 23.8125 -24.5625 23.8125 C-24.5625 20.1825 -24.5625 16.5525 -24.5625 12.8125 C-26.2125 12.4825 -27.8625 12.1525 -29.5625 11.8125 C-31.7144437 8.58458445 -31.76336443 7.52849191 -31.5625 3.8125 C-30.5725 3.4825 -29.5825 3.1525 -28.5625 2.8125 C-28.5625 2.1525 -28.5625 1.4925 -28.5625 0.8125 C-25.47924642 0.7542747 -22.39613495 0.71882866 -19.3125 0.6875 C-18.00345703 0.66236328 -18.00345703 0.66236328 -16.66796875 0.63671875 C-15.82363281 0.63027344 -14.97929687 0.62382812 -14.109375 0.6171875 C-13.33432617 0.60671387 -12.55927734 0.59624023 -11.76074219 0.58544922 C-9.30366461 0.83923444 -7.68938458 1.58805848 -5.5625 2.8125 C-5.170625 2.296875 -4.77875 1.78125 -4.375 1.25 C-2.5625 -0.1875 -2.5625 -0.1875 0 0 Z M19.4375 9.8125 C17.93367185 17.15764411 17.20100097 23.3935058 18.4375 30.8125 C19.7575 30.4825 21.0775 30.1525 22.4375 29.8125 C24.52052506 24.17607924 25.21918815 18.66954381 23.4375 12.8125 C21.48275756 11.0039614 21.48275756 11.0039614 19.4375 9.8125 Z M24.4375 14.8125 C25.4375 16.8125 25.4375 16.8125 25.4375 16.8125 Z M24.4375 22.8125 C25.4375 24.8125 25.4375 24.8125 25.4375 24.8125 Z M47.4375 23.8125 C47.4375 24.4725 47.4375 25.1325 47.4375 25.8125 C48.4275 25.8125 49.4175 25.8125 50.4375 25.8125 C50.4375 26.4725 50.4375 27.1325 50.4375 27.8125 C51.4275 27.8125 52.4175 27.8125 53.4375 27.8125 C53.4375 27.1525 53.4375 26.4925 53.4375 25.8125 C51.4575 25.1525 49.4775 24.4925 47.4375 23.8125 Z M25.4375 54.8125 C26.4375 56.8125 26.4375 56.8125 26.4375 56.8125 Z M24.4375 56.8125 C24.1075 57.8025 23.7775 58.7925 23.4375 59.8125 C24.4275 60.3075 24.4275 60.3075 25.4375 60.8125 C25.1075 59.4925 24.7775 58.1725 24.4375 56.8125 Z M26.4375 64.8125 C27.4375 66.8125 27.4375 66.8125 27.4375 66.8125 Z " fill="#001300" transform="translate(31.5625,11.1875)"/>
<path d="M0 0 C0.763125 0.226875 1.52625 0.45375 2.3125 0.6875 C2.6425 1.6775 2.9725 2.6675 3.3125 3.6875 C4.9625 3.3575 6.6125 3.0275 8.3125 2.6875 C8.3125 2.0275 8.3125 1.3675 8.3125 0.6875 C10.39518593 0.60623913 12.47878658 0.54819161 14.5625 0.5 C16.30273438 0.44779297 16.30273438 0.44779297 18.078125 0.39453125 C21.54132755 0.70822713 22.90480906 1.22617238 25.3125 3.6875 C25.3125 4.3475 25.3125 5.0075 25.3125 5.6875 C24.6525 5.6875 23.9925 5.6875 23.3125 5.6875 C23.3125 7.3375 23.3125 8.9875 23.3125 10.6875 C21.3325 10.6875 19.3525 10.6875 17.3125 10.6875 C17.3125 17.2875 17.3125 23.8875 17.3125 30.6875 C18.9625 31.0175 20.6125 31.3475 22.3125 31.6875 C21.9825 33.0075 21.6525 34.3275 21.3125 35.6875 C17.3525 35.6875 13.3925 35.6875 9.3125 35.6875 C9.3125 33.7075 9.3125 31.7275 9.3125 29.6875 C9.9725 29.6875 10.6325 29.6875 11.3125 29.6875 C10.91646583 26.91226056 10.49680884 24.14427851 10.0625 21.375 C9.95292969 20.58931641 9.84335937 19.80363281 9.73046875 18.99414062 C9.0365039 14.30675177 9.0365039 14.30675177 6.203125 10.64453125 C5.57921875 10.32871094 4.9553125 10.01289063 4.3125 9.6875 C3.3250515 16.47620847 3.25127833 23.07871185 3.4375 29.92163086 C3.46866658 31.84378618 3.39799484 33.76699406 3.3125 35.6875 C2.6525 36.3475 1.9925 37.0075 1.3125 37.6875 C0.3225 37.6875 -0.6675 37.6875 -1.6875 37.6875 C-3.18906874 34.68436252 -2.78031204 31.89682478 -2.75 28.5625 C-2.74097656 27.28117187 -2.73195313 25.99984375 -2.72265625 24.6796875 C-2.71105469 23.69226563 -2.69945312 22.70484375 -2.6875 21.6875 C-3.31398438 21.9040625 -3.94046875 22.120625 -4.5859375 22.34375 C-5.40320312 22.6221875 -6.22046875 22.900625 -7.0625 23.1875 C-7.87460937 23.4659375 -8.68671875 23.744375 -9.5234375 24.03125 C-11.6875 24.6875 -11.6875 24.6875 -13.6875 24.6875 C-13.6875 28.6475 -13.6875 32.6075 -13.6875 36.6875 C-15.1725 37.1825 -15.1725 37.1825 -16.6875 37.6875 C-16.6875 26.4675 -16.6875 15.2475 -16.6875 3.6875 C-14.2125 4.1825 -14.2125 4.1825 -11.6875 4.6875 C-11.3575 8.9775 -11.0275 13.2675 -10.6875 17.6875 C-10.0275 17.6875 -9.3675 17.6875 -8.6875 17.6875 C-8.50574219 16.63949219 -8.32398438 15.59148438 -8.13671875 14.51171875 C-7.88342942 13.13269905 -7.62948904 11.75379881 -7.375 10.375 C-7.25705078 9.68470703 -7.13910156 8.99441406 -7.01757812 8.28320312 C-6.47421679 5.39920833 -5.97826184 3.09203822 -4.25 0.6875 C-2.6875 -0.3125 -2.6875 -0.3125 0 0 Z M10.3125 14.6875 C11.3125 16.6875 11.3125 16.6875 11.3125 16.6875 Z " fill="#010C00" transform="translate(45.6875,11.3125)"/>
<path d="M0 0 C2.03414835 1.86506297 3.39687707 3.71676431 5 6 C4 8 3 10 2 12 C1.34 12 0.68 12 0 12 C0.825 12.928125 1.65 13.85625 2.5 14.8125 C5.39135474 18.89684925 5.78555981 22.4032505 5.5546875 27.33984375 C4.64355868 31.70941225 2.4341814 34.2608315 -1 37 C-4.1905393 38.9634088 -5.78807456 39.00743598 -9.5625 38.875 C-13.49494708 37.87401347 -14.88407713 37.47011351 -17 34 C-17.43079439 30.62453509 -17.50476088 27.3689854 -17 24 C-16.34 23.34 -15.68 22.68 -15 22 C-14.01 22 -13.02 22 -12 22 C-12.825 21.319375 -13.65 20.63875 -14.5 19.9375 C-17 17 -17 17 -17.5 13.5625 C-16.72710637 8.05563286 -15.05582178 4.57488945 -10.75 1.0625 C-6.91354918 -1.43038366 -4.39598248 -1.54673458 0 0 Z M-12 22 C-12 22.66 -12 23.32 -12 24 C-11.01 24 -10.02 24 -9 24 C-9 24.66 -9 25.32 -9 26 C-8.01 26 -7.02 26 -6 26 C-6 25.34 -6 24.68 -6 24 C-7.98 23.34 -9.96 22.68 -12 22 Z " fill="#011001" transform="translate(91,13)"/>
<path d="M0 0 C3.23356015 1.21258505 4.00856305 2.01284458 6 5 C5.71325582 7.00720923 5.38133299 9.0085944 5 11 C5.33 11.66 5.66 12.32 6 13 C6.66 13 7.32 13 8 13 C8 10.03 8 7.06 8 4 C9.32 3.34 10.64 2.68 12 2 C12 1.34 12 0.68 12 0 C15.65316671 1.24976756 16.78065836 1.67098753 19 5 C19.265625 7.3046875 19.265625 7.3046875 19.25 9.875 C19.25515625 10.71804687 19.2603125 11.56109375 19.265625 12.4296875 C19 15 19 15 17.9453125 17.41015625 C16.40837373 21.62086039 17.48700012 25.58405824 18.1015625 29.94140625 C18 33 18 33 16.0234375 35.40234375 C15.35570313 35.92957031 14.68796875 36.45679688 14 37 C11.04590299 35.62845496 8.55991624 34.01136276 6 32 C4.35 33.98 2.7 35.96 1 38 C0.01 37.34 -0.98 36.68 -2 36 C-2.43237305 33.20263672 -2.43237305 33.20263672 -2.51171875 29.6796875 C-2.54716797 28.42285156 -2.58261719 27.16601562 -2.61914062 25.87109375 C-2.64169922 24.55238281 -2.66425781 23.23367187 -2.6875 21.875 C-2.72066529 20.53512241 -2.75515422 19.19527689 -2.79101562 17.85546875 C-2.87373327 14.5703967 -2.94280693 11.28559968 -3 8 C-3.66 8 -4.32 8 -5 8 C-4.67 6.35 -4.34 4.7 -4 3 C-3.34 3 -2.68 3 -2 3 C-2 2.34 -2 1.68 -2 1 C-1.34 0.67 -0.68 0.34 0 0 Z " fill="#000E00" transform="translate(62,52)"/>
<path d="M0 0 C3.375 0.125 3.375 0.125 7 1 C9.64852126 3.90482977 9.9807378 5.63401815 10.1875 9.5625 C10.125625 10.696875 10.06375 11.83125 10 13 C9.83507784 16.85934373 9.83507784 16.85934373 10.75 19.9375 C11 23 11 23 9.5625 25.8125 C5.98934463 28.86275458 3.65421497 28.84740279 -1 29 C-2 28 -2 28 -2.1328125 25.296875 C-2.0816777 2.0816777 -2.0816777 2.0816777 0 0 Z " fill="#14CD28" transform="translate(43,56)"/>
<path d="M0 0 C1.32 0 2.64 0 4 0 C4 4.95 4 9.9 4 15 C7.3 14.67 10.6 14.34 14 14 C13.98839844 13.24074219 13.97679687 12.48148438 13.96484375 11.69921875 C13.95582031 10.70535156 13.94679688 9.71148437 13.9375 8.6875 C13.92589844 7.70136719 13.91429687 6.71523438 13.90234375 5.69921875 C14 3 14 3 15 0 C15.99 0 16.98 0 18 0 C18 10.56 18 21.12 18 32 C16.68 32 15.36 32 14 32 C14 27.38 14 22.76 14 18 C12.55625 18.495 11.1125 18.99 9.625 19.5 C5.25 21 5.25 21 3 21 C3 24.96 3 28.92 3 33 C1.515 33.495 1.515 33.495 0 34 C0 22.78 0 11.56 0 0 Z " fill="#17B22A" transform="translate(29,15)"/>
<path d="M0 0 C0.99 0 1.98 0 3 0 C3.36458333 4.49652778 3.36458333 4.49652778 1.6875 6.8125 C0 8 0 8 -3 8 C-3 12.29 -3 16.58 -3 21 C-2.01 21.33 -1.02 21.66 0 22 C0 22.66 0 23.32 0 24 C0.61875 23.690625 1.2375 23.38125 1.875 23.0625 C3.25 22.375 4.625 21.6875 6 21 C6 23.31 6 25.62 6 28 C5.01 28.33 4.02 28.66 3 29 C2.38125 29.845625 1.7625 30.69125 1.125 31.5625 C-3.18277651 34.92256568 -6.52633255 34.84100797 -11.8828125 34.5859375 C-15.01886841 33.99645331 -16.51407883 33.54145441 -18.8125 31.375 C-22.50963451 25.92892161 -21.48706059 19.26119916 -21 13 C-20.94199219 12.05253906 -20.88398437 11.10507812 -20.82421875 10.12890625 C-20.625 7.6875 -20.625 7.6875 -20 4 C-19.34 3.67 -18.68 3.34 -18 3 C-17.89165445 8.76639089 -18.033489 14.367395 -18.78125 20.08984375 C-19.05688789 22.17631306 -19.05688789 22.17631306 -19 25 C-17.68 24.67 -16.36 24.34 -15 24 C-14.67 21.69 -14.34 19.38 -14 17 C-12 19 -12 19 -11.875 21.625 C-11.91625 22.40875 -11.9575 23.1925 -12 24 C-12.66 24 -13.32 24 -14 24 C-14 25.98 -14 27.96 -14 30 C-10.04 29.67 -6.08 29.34 -2 29 C-2 28.01 -2 27.02 -2 26 C-3.32 25.67 -4.64 25.34 -6 25 C-6 18.4 -6 11.8 -6 5 C-4.02 5 -2.04 5 0 5 C0 3.35 0 1.7 0 0 Z " fill="#010801" transform="translate(69,17)"/>
<path d="M0 0 C1.375 2.0625 1.375 2.0625 2 4 C-0.98241547 4.77321882 -3.97580475 5.41196203 -7 6 C-7.33 7.32 -7.66 8.64 -8 10 C-6.906875 10.268125 -5.81375 10.53625 -4.6875 10.8125 C-0.11610487 12.28464419 -0.11610487 12.28464419 2 15 C3.2420849 19.19793252 3.45650316 22.87075535 1.8125 26.9375 C-0.97525069 30.10976802 -2.82214428 30.85276804 -7 31.375 C-10 31 -10 31 -12.375 29.3125 C-14.27258004 26.61209763 -14.35882213 25.22939919 -14 22 C-12.68 22.33 -11.36 22.66 -10 23 C-10 23.99 -10 24.98 -10 26 C-5.66770285 25.1395861 -5.66770285 25.1395861 -2 23 C-1.95936168 21.33382885 -1.957279 19.66611905 -2 18 C-2.63808594 17.72285156 -3.27617188 17.44570313 -3.93359375 17.16015625 C-4.75988281 16.79792969 -5.58617188 16.43570313 -6.4375 16.0625 C-7.26121094 15.70285156 -8.08492188 15.34320313 -8.93359375 14.97265625 C-11 14 -11 14 -12 13 C-12.58968059 5.92383292 -12.58968059 5.92383292 -10.125 2.0625 C-6.58978652 -1.36873661 -4.71853909 -1.27793767 0 0 Z " fill="#13C229" transform="translate(90,17)"/>
<path d="M0 0 C0.66 0 1.32 0 2 0 C2 4.62 2 9.24 2 14 C5.3 13.34 8.6 12.68 12 12 C12 8.37 12 4.74 12 1 C12.99 1 13.98 1 15 1 C15 9.91 15 18.82 15 28 C13.68 28 12.36 28 11 28 C11 24.37 11 20.74 11 17 C8.36 17.66 5.72 18.32 3 19 C2.67 21.97 2.34 24.94 2 28 C1.01 28.33 0.02 28.66 -1 29 C-1.02465881 25.03069011 -1.04284023 21.06140966 -1.05493164 17.09204102 C-1.05997057 15.74079614 -1.06680177 14.38955674 -1.07543945 13.03833008 C-1.08752419 11.09979566 -1.09269828 9.161222 -1.09765625 7.22265625 C-1.10289307 6.05484619 -1.10812988 4.88703613 -1.11352539 3.68383789 C-1 1 -1 1 0 0 Z " fill="#17BD2A" transform="translate(62,56)"/>
<path d="M0 0 C5.61 0.33 11.22 0.66 17 1 C17.33 2.65 17.66 4.3 18 6 C15.36 6 12.72 6 10 6 C10 14.25 10 22.5 10 31 C8.68 31 7.36 31 6 31 C6 22.75 6 14.5 6 6 C3.69 5.67 1.38 5.34 -1 5 C-0.67 3.35 -0.34 1.7 0 0 Z " fill="#12C827" transform="translate(5,15)"/>
<path d="M0 0 C1.95825873 -0.02694851 3.91662226 -0.04637218 5.875 -0.0625 C6.96554688 -0.07410156 8.05609375 -0.08570313 9.1796875 -0.09765625 C12 0 12 0 14 1 C14 2.32 14 3.64 14 5 C12.02 5 10.04 5 8 5 C8 11.93 8 18.86 8 26 C9.65 26 11.3 26 13 26 C13.5625 27.9375 13.5625 27.9375 14 30 C13 31 13 31 10.27734375 31.09765625 C9.17519531 31.08605469 8.07304688 31.07445313 6.9375 31.0625 C5.28041016 31.04896484 5.28041016 31.04896484 3.58984375 31.03515625 C2.73519531 31.02355469 1.88054688 31.01195313 1 31 C1.33 29.35 1.66 27.7 2 26 C2.99 26 3.98 26 5 26 C5 19.07 5 12.14 5 5 C3.35 4.67 1.7 4.34 0 4 C0 2.68 0 1.36 0 0 Z " fill="#11D32A" transform="translate(54,16)"/>
<path d="M0 0 C4.95 0 9.9 0 15 0 C15.33 1.32 15.66 2.64 16 4 C15.67 4.33 15.34 4.66 15 5 C13.02 5 11.04 5 9 5 C9 12.26 9 19.52 9 27 C8.01 27 7.02 27 6 27 C5.67 19.74 5.34 12.48 5 5 C3.35 4.67 1.7 4.34 0 4 C0 2.68 0 1.36 0 0 Z " fill="#17BF29" transform="translate(20,57)"/>
<path d="M0 0 C1.32 0.33 2.64 0.66 4 1 C5.35700647 3.71401294 5.1123861 5.84846316 5.09765625 8.8828125 C5.09443359 10.04941406 5.09121094 11.21601562 5.08789062 12.41796875 C5.07951172 13.64128906 5.07113281 14.86460938 5.0625 16.125 C5.05798828 17.35605469 5.05347656 18.58710937 5.04882812 19.85546875 C5.0370133 22.90369392 5.02054028 25.95182314 5 29 C2 27 2 27 1 24 C0.071875 24.845625 -0.85625 25.69125 -1.8125 26.5625 C-3.39453125 28.00390625 -3.39453125 28.00390625 -5 29 C-5.99 28.67 -6.98 28.34 -8 28 C-6.60878255 25.2175651 -4.69835788 24.44789935 -2 23 C-1.34 23 -0.68 23 0 23 C0.12469099 17.42169984 0.12469099 17.42169984 -1 12 C-0.34 12 0.32 12 1 12 C1.33 11.01 1.66 10.02 2 9 C1.34 9 0.68 9 0 9 C0 6.03 0 3.06 0 0 Z M2 7 C3 9 3 9 3 9 Z M3 17 C4 19 4 19 4 19 Z " fill="#010401" transform="translate(55,59)"/>
<path d="M0 0 C3.23356015 1.21258505 4.00856305 2.01284458 6 5 C5.7578125 7.69921875 5.7578125 7.69921875 5.125 10.6875 C4.92132813 11.68136719 4.71765625 12.67523438 4.5078125 13.69921875 C4.25644531 14.83810547 4.25644531 14.83810547 4 16 C5.65 15.67 7.3 15.34 9 15 C9.66 12.36 10.32 9.72 11 7 C11.33 7 11.66 7 12 7 C12 9.97 12 12.94 12 16 C8.7 16.66 5.4 17.32 2 18 C2 13.38 2 8.76 2 4 C1.01 4.495 1.01 4.495 0 5 C-0.33 14.24 -0.66 23.48 -1 33 C0.485 32.505 0.485 32.505 2 32 C2 32.66 2 33.32 2 34 C0.02 34.495 0.02 34.495 -2 35 C-2.33 26.09 -2.66 17.18 -3 8 C-3.66 8 -4.32 8 -5 8 C-4.67 6.35 -4.34 4.7 -4 3 C-3.34 3 -2.68 3 -2 3 C-2 2.34 -2 1.68 -2 1 C-1.34 0.67 -0.68 0.34 0 0 Z " fill="#011B01" transform="translate(62,52)"/>
<path d="M0 0 C0.66 0.33 1.32 0.66 2 1 C2 9.91 2 18.82 2 28 C0.68 28 -0.64 28 -2 28 C-2 24.37 -2 20.74 -2 17 C-3.32 16.67 -4.64 16.34 -6 16 C-4.625 14 -4.625 14 -3 12 C-2.34 12 -1.68 12 -1 12 C-1.01160156 11.21753906 -1.02320312 10.43507813 -1.03515625 9.62890625 C-1.04417969 8.61699219 -1.05320312 7.60507812 -1.0625 6.5625 C-1.07410156 5.55316406 -1.08570312 4.54382812 -1.09765625 3.50390625 C-1 1 -1 1 0 0 Z " fill="#15AA25" transform="translate(75,56)"/>
<path d="M0 0 C0.66 0 1.32 0 2 0 C2.66 5.28 3.32 10.56 4 16 C4.99 16 5.98 16 7 16 C7.33 11.71 7.66 7.42 8 3 C8.66 3 9.32 3 10 3 C10.10794277 5.26979665 10.18556176 7.54105196 10.25 9.8125 C10.29640625 11.07707031 10.3428125 12.34164062 10.390625 13.64453125 C10 17 10 17 8.11328125 18.95703125 C6 20 6 20 3.9375 19.875 C1.56164436 18.80203294 0.54615762 18.13083908 -1 16 C-1.24415006 13.36666724 -1.32885315 10.99686717 -1.25 8.375 C-1.24484375 7.68148437 -1.2396875 6.98796875 -1.234375 6.2734375 C-1.15438988 1.15438988 -1.15438988 1.15438988 0 0 Z " fill="#000700" transform="translate(23,68)"/>
<path d="M0 0 C0.33 0 0.66 0 1 0 C1.32405231 4.64474974 0.88473323 7.29105728 -2 11 C-5.20032236 13.31747481 -8.12478608 13.48440174 -12 13 C-14.375 11.3125 -14.375 11.3125 -16 9 C-16.25 6.25 -16.25 6.25 -16 4 C-14.68 4.33 -13.36 4.66 -12 5 C-12 5.99 -12 6.98 -12 8 C-8.53514293 7.37967524 -8.53514293 7.37967524 -5 6 C-3.48207356 3.50358872 -3.48207356 3.50358872 -3 1 C-2.67 2.32 -2.34 3.64 -2 5 C-1.34 5 -0.68 5 0 5 C0 3.35 0 1.7 0 0 Z " fill="#0CC824" transform="translate(92,35)"/>
<path d="M0 0 C0 8.25 0 16.5 0 25 C-1.32 25 -2.64 25 -4 25 C-4 17.08 -4 9.16 -4 1 C-2 0 -2 0 0 0 Z " fill="#1BAE2E" transform="translate(15,21)"/>
<path d="M0 0 C0.33 0 0.66 0 1 0 C1.02887512 3.64581687 1.04675585 7.29160463 1.0625 10.9375 C1.07087891 11.97841797 1.07925781 13.01933594 1.08789062 14.09179688 C1.09111328 15.08115234 1.09433594 16.07050781 1.09765625 17.08984375 C1.10289307 18.00628662 1.10812988 18.92272949 1.11352539 19.86694336 C1 22 1 22 0 23 C0.99 23 1.98 23 3 23 C3.33 22.34 3.66 21.68 4 21 C5.65 21.33 7.3 21.66 9 22 C8.67 23.32 8.34 24.64 8 26 C4.04 26 0.08 26 -4 26 C-3.67 24.35 -3.34 22.7 -3 21 C-2.01 21 -1.02 21 0 21 C0 14.07 0 7.14 0 0 Z " fill="#19C32D" transform="translate(59,21)"/>
<path d="M0 0 C0.33 1.32 0.66 2.64 1 4 C1.804375 3.979375 2.60875 3.95875 3.4375 3.9375 C6 4 6 4 7 5 C7.07271741 7.35313555 7.08370868 9.70833668 7.0625 12.0625 C7.05347656 13.35285156 7.04445313 14.64320312 7.03515625 15.97265625 C7.02355469 16.97167969 7.01195312 17.97070312 7 19 C6.67 19 6.34 19 6 19 C6 16.36 6 13.72 6 11 C5.34 11 4.68 11 4 11 C4 10.34 4 9.68 4 9 C3.236875 8.773125 2.47375 8.54625 1.6875 8.3125 C-1.54736301 6.73268318 -2.41641358 5.16717283 -4 2 C-3.01 2.33 -2.02 2.66 -1 3 C-0.67 2.01 -0.34 1.02 0 0 Z " fill="#032805" transform="translate(19,57)"/>
<path d="M0 0 C0.33 0 0.66 0 1 0 C1.33 5.28 1.66 10.56 2 16 C4.64 15.67 7.28 15.34 10 15 C10 15.66 10 16.32 10 17 C9.195625 17.12375 8.39125 17.2475 7.5625 17.375 C6.716875 17.58125 5.87125 17.7875 5 18 C4.67 18.66 4.34 19.32 4 20 C3.01 20 2.02 20 1 20 C1 23.63 1 27.26 1 31 C0.67 31 0.34 31 0 31 C0 20.77 0 10.54 0 0 Z " fill="#0AD422" transform="translate(30,16)"/>
<path d="M0 0 C0.33 0 0.66 0 1 0 C1.1083667 2.7302389 1.18746694 5.45614543 1.25 8.1875 C1.30027344 9.34088867 1.30027344 9.34088867 1.3515625 10.51757812 C1.41953373 14.4769025 1.26260013 16.54625951 -0.765625 20.05078125 C-3 22 -3 22 -7 22 C-7.66 20.68 -8.32 19.36 -9 18 C-5.535 17.505 -5.535 17.505 -2 17 C-1.93941406 15.85660156 -1.87882812 14.71320312 -1.81640625 13.53515625 C-1.73201572 12.04425695 -1.64736698 10.55337225 -1.5625 9.0625 C-1.52318359 8.30775391 -1.48386719 7.55300781 -1.44335938 6.77539062 C-1.11328125 1.11328125 -1.11328125 1.11328125 0 0 Z " fill="#000100" transform="translate(18,29)"/>
<path d="M0 0 C0.99 0.66 1.98 1.32 3 2 C3 2.66 3 3.32 3 4 C2.34 4 1.68 4 1 4 C1 5.65 1 7.3 1 9 C-0.98 9 -2.96 9 -5 9 C-5 15.6 -5 22.2 -5 29 C-5.33 29 -5.66 29 -6 29 C-6 22.07 -6 15.14 -6 8 C-4.02 8 -2.04 8 0 8 C0 6.68 0 5.36 0 4 C-3.96 3.67 -7.92 3.34 -12 3 C-12 2.67 -12 2.34 -12 2 C-11.21753906 1.93941406 -10.43507812 1.87882813 -9.62890625 1.81640625 C-8.61699219 1.73261719 -7.60507812 1.64882812 -6.5625 1.5625 C-5.55316406 1.48128906 -4.54382812 1.40007813 -3.50390625 1.31640625 C-1.06359221 1.26788532 -1.06359221 1.26788532 0 0 Z " fill="#064D0C" transform="translate(68,13)"/>
<path d="M0 0 C1.32 0 2.64 0 4 0 C4 6.93 4 13.86 4 21 C2.68 21.33 1.36 21.66 0 22 C0 21.34 0 20.68 0 20 C0.66 20 1.32 20 2 20 C1.9278125 19.11957031 1.855625 18.23914063 1.78125 17.33203125 C1.6884375 16.17058594 1.595625 15.00914063 1.5 13.8125 C1.4071875 12.66394531 1.314375 11.51539063 1.21875 10.33203125 C1 7 1 7 1.03125 4.19921875 C1.15864157 1.95523289 1.15864157 1.95523289 0 0 Z " fill="#002B00" transform="translate(55,21)"/>
<path d="M0 0 C0.66 0 1.32 0 2 0 C3.05404945 3.98196457 2.84098656 6.98195309 2 11 C3.65 10.67 5.3 10.34 7 10 C7.66 7.36 8.32 4.72 9 2 C9.33 2 9.66 2 10 2 C10 4.97 10 7.94 10 11 C6.7 11.66 3.4 12.32 0 13 C0 8.71 0 4.42 0 0 Z " fill="#023B05" transform="translate(64,57)"/>
<path d="M0 0 C1.9375 0.8125 1.9375 0.8125 4 2 C5.180933 5.542799 5.27028374 8.28359861 5 12 C4.01 12.66 3.02 13.32 2 14 C1.01 13.34 0.02 12.68 -1 12 C-0.34 11.34 0.32 10.68 1 10 C0.74438677 7.6568787 0.40729228 5.32156597 0 3 C0 2.01 0 1.02 0 0 Z " fill="#15BC2B" transform="translate(48,57)"/>
<path d="M0 0 C0.33 0 0.66 0 1 0 C1.32215416 4.6175429 0.92900057 7.33874929 -2 11 C-4.1875 11.8125 -4.1875 11.8125 -6 12 C-6 11.01 -6 10.02 -6 9 C-7.32 8.67 -8.64 8.34 -10 8 C-8.824375 7.6596875 -8.824375 7.6596875 -7.625 7.3125 C-4.78125 6.21875 -4.78125 6.21875 -3.6875 3.375 C-3.460625 2.59125 -3.23375 1.8075 -3 1 C-2.67 2.32 -2.34 3.64 -2 5 C-1.34 5 -0.68 5 0 5 C0 3.35 0 1.7 0 0 Z " fill="#1ABC2E" transform="translate(92,35)"/>
<path d="M0 0 C8.57142857 2 8.57142857 2 12 4 C12 6.64 12 9.28 12 12 C11.34 12 10.68 12 10 12 C9.71125 11.236875 9.4225 10.47375 9.125 9.6875 C8.03730987 6.84970692 8.03730987 6.84970692 6 4 C2.94570927 2.78715124 2.94570927 2.78715124 0 2 C0 1.34 0 0.68 0 0 Z " fill="#0BD21F" transform="translate(80,28)"/>
<path d="M0 0 C0.66 0 1.32 0 2 0 C3.87815754 2.52828899 4.91689417 4.43211013 5.375 7.5625 C4.92482582 10.48863215 4.04127119 11.88021838 2 14 C1.34 14 0.68 14 0 14 C-0.33 14.99 -0.66 15.98 -1 17 C-2.32 16.67 -3.64 16.34 -5 16 C-4.38125 15.938125 -3.7625 15.87625 -3.125 15.8125 C-0.8483459 15.17462806 -0.8483459 15.17462806 0.3125 13.0625 C1.3130601 8.60545957 0.64451136 4.48545065 0 0 Z " fill="#001D01" transform="translate(91,31)"/>
<path d="M0 0 C1.98 0 3.96 0 6 0 C6 3.96 6 7.92 6 12 C5.01 12.33 4.02 12.66 3 13 C3 9.37 3 5.74 3 2 C1.68 1.67 0.36 1.34 -1 1 C-0.67 0.67 -0.34 0.34 0 0 Z " fill="#010600" transform="translate(4,22)"/>
<path d="M0 0 C1.828125 1.94921875 1.828125 1.94921875 2.21875 4.8671875 C2.17234375 5.94613281 2.1259375 7.02507813 2.078125 8.13671875 C2.04203125 9.22339844 2.0059375 10.31007813 1.96875 11.4296875 C1.92234375 12.26113281 1.8759375 13.09257812 1.828125 13.94921875 C2.488125 14.27921875 3.148125 14.60921875 3.828125 14.94921875 C3.498125 15.60921875 3.168125 16.26921875 2.828125 16.94921875 C2.168125 16.94921875 1.508125 16.94921875 0.828125 16.94921875 C0.69535156 16.04558594 0.56257813 15.14195313 0.42578125 14.2109375 C0.24917969 13.03144531 0.07257812 11.85195313 -0.109375 10.63671875 C-0.28339844 9.46496094 -0.45742188 8.29320312 -0.63671875 7.0859375 C-1.09280531 3.93280472 -1.09280531 3.93280472 -2.171875 0.94921875 C-3.161875 0.61921875 -4.151875 0.28921875 -5.171875 -0.05078125 C-2.171875 -1.05078125 -2.171875 -1.05078125 0 0 Z " fill="#000300" transform="translate(34.171875,12.05078125)"/>
<path d="M0 0 C0 2.64 0 5.28 0 8 C-0.66 6.68 -1.32 5.36 -2 4 C-4.64 4 -7.28 4 -10 4 C-10 7.63 -10 11.26 -10 15 C-10.33 15 -10.66 15 -11 15 C-11 11.04 -11 7.08 -11 3 C-2.25 0 -2.25 0 0 0 Z " fill="#013B03" transform="translate(43,33)"/>
<path d="M0 0 C0.33 0 0.66 0 1 0 C1.602537 6.02536998 1.602537 6.02536998 -0.11328125 8.80078125 C-1.34621853 10.25599455 -2.66808933 11.63479157 -4 13 C-4.99 12.34 -5.98 11.68 -7 11 C-6.67 10.34 -6.34 9.68 -6 9 C-5.01 9 -4.02 9 -3 9 C-2.814375 7.329375 -2.814375 7.329375 -2.625 5.625 C-2 2 -2 2 0 0 Z " fill="#000201" transform="translate(67,77)"/>
<path d="M0 0 C1.32 0.33 2.64 0.66 4 1 C4.625 3.875 4.625 3.875 5 7 C4.34 7.66 3.68 8.32 3 9 C2.01 9 1.02 9 0 9 C0 6.03 0 3.06 0 0 Z " fill="#002E01" transform="translate(45,60)"/>
<path d="M0 0 C0.33 1.32 0.66 2.64 1 4 C4.96 4 8.92 4 13 4 C13 4.33 13 4.66 13 5 C10.69 5 8.38 5 6 5 C6.33 5.99 6.66 6.98 7 8 C4.69 8 2.38 8 0 8 C-0.98120464 4.94736336 -0.98120464 3.05263664 0 0 Z " fill="#002302" transform="translate(54,43)"/>
<path d="M0 0 C2.97 0.495 2.97 0.495 6 1 C6 2.32 6 3.64 6 5 C4.02 5.33 2.04 5.66 0 6 C0 4.02 0 2.04 0 0 Z " fill="#003603" transform="translate(44,74)"/>
<path d="M0 0 C0.33 0.99 0.66 1.98 1 3 C-0.58272601 4.58272601 -2.38034003 4.34735747 -4.5625 4.5625 C-5.80193359 4.68818359 -5.80193359 4.68818359 -7.06640625 4.81640625 C-8.02353516 4.90728516 -8.02353516 4.90728516 -9 5 C-9 5.99 -9 6.98 -9 8 C-7.35 8 -5.7 8 -4 8 C-4 8.33 -4 8.66 -4 9 C-5.98 9 -7.96 9 -10 9 C-10.6875 7.1875 -10.6875 7.1875 -11 5 C-10 3.25 -10 3.25 -8 2 C-4.3125 1.8125 -4.3125 1.8125 -1 2 C-0.67 1.34 -0.34 0.68 0 0 Z " fill="#003101" transform="translate(92,19)"/>
<path d="M0 0 C0.33 0 0.66 0 1 0 C1 1.98 1 3.96 1 6 C1.66 6 2.32 6 3 6 C2.67 8.64 2.34 11.28 2 14 C3.32 14.33 4.64 14.66 6 15 C4.33388095 15.042721 2.66617115 15.04063832 1 15 C0 14 0 14 -0.09765625 10.83984375 C-0.08025391 8.90818359 -0.08025391 8.90818359 -0.0625 6.9375 C-0.05347656 5.64714844 -0.04445312 4.35679688 -0.03515625 3.02734375 C-0.02355469 2.02832031 -0.01195312 1.02929688 0 0 Z " fill="#18A22A" transform="translate(41,70)"/>
<path d="M0 0 C0.99 0.33 1.98 0.66 3 1 C3 2.65 3 4.3 3 6 C0.69 6 -1.62 6 -4 6 C-3.67 5.01 -3.34 4.02 -3 3 C-2.01 3.33 -1.02 3.66 0 4 C0 3.34 0 2.68 0 2 C-0.66 1.67 -1.32 1.34 -2 1 C-1.34 0.67 -0.68 0.34 0 0 Z " fill="#020503" transform="translate(85,35)"/>
<path d="M0 0 C0.33 0 0.66 0 1 0 C1 4.62 1 9.24 1 14 C1.66 14 2.32 14 3 14 C2.67 14.99 2.34 15.98 2 17 C0.68 16.67 -0.64 16.34 -2 16 C-1.67 15.67 -1.34 15.34 -1 15 C-0.76346477 12.47403741 -0.57826308 9.96892793 -0.4375 7.4375 C-0.39431641 6.72658203 -0.35113281 6.01566406 -0.30664062 5.28320312 C-0.20028223 3.52238088 -0.09961154 1.7612168 0 0 Z " fill="#06D520" transform="translate(60,28)"/>
<path d="M0 0 C2.31 0 4.62 0 7 0 C7 1.32 7 2.64 7 4 C4.69 4 2.38 4 0 4 C0 2.68 0 1.36 0 0 Z " fill="#0DD328" transform="translate(43,80)"/>
<path d="M0 0 C3.96 0 7.92 0 12 0 C12 0.33 12 0.66 12 1 C8.7 1 5.4 1 2 1 C2.99 2.32 3.98 3.64 5 5 C3.35 4.67 1.7 4.34 0 4 C0 2.68 0 1.36 0 0 Z " fill="#1BB22D" transform="translate(54,16)"/>
<path d="M0 0 C0.66 0.66 1.32 1.32 2 2 C0.68 3.32 -0.64 4.64 -2 6 C-2.33 5.34 -2.66 4.68 -3 4 C-4.65 4 -6.3 4 -8 4 C-5.33333333 2.66666667 -2.66666667 1.33333333 0 0 Z " fill="#0DBE25" transform="translate(52,77)"/>
<path d="M0 0 C1.98 0 3.96 0 6 0 C5.01 0.33 4.02 0.66 3 1 C1.79117904 3.00016466 1.79117904 3.00016466 1 5 C-0.32 4.67 -1.64 4.34 -3 4 C-2.34 4 -1.68 4 -1 4 C-0.67 2.68 -0.34 1.36 0 0 Z " fill="#1DC62F" transform="translate(67,69)"/>
<path d="M0 0 C0.99 0 1.98 0 3 0 C3 1.65 3 3.3 3 5 C1.02 5.99 1.02 5.99 -1 7 C-1.33 6.34 -1.66 5.68 -2 5 C-1.34 5 -0.68 5 0 5 C0 3.35 0 1.7 0 0 Z " fill="#010403" transform="translate(69,17)"/>
<path d="M0 0 C0.66 0 1.32 0 2 0 C2 2.64 2 5.28 2 8 C1.34 8 0.68 8 0 8 C-0.38063221 5.6739143 -0.71269945 3.33944736 -1 1 C-0.67 0.67 -0.34 0.34 0 0 Z " fill="#010401" transform="translate(1,14)"/>
<path d="M0 0 C0.33 0 0.66 0 1 0 C1.06058594 0.67546875 1.12117188 1.3509375 1.18359375 2.046875 C1.26738281 2.93890625 1.35117187 3.8309375 1.4375 4.75 C1.51871094 5.63171875 1.59992187 6.5134375 1.68359375 7.421875 C1.96238465 9.69350452 2.38790577 11.79851823 3 14 C2.01 13.67 1.02 13.34 0 13 C0 8.71 0 4.42 0 0 Z " fill="#24B338" transform="translate(43,34)"/>
<path d="M0 0 C0.33 0 0.66 0 1 0 C1.25 5.625 1.25 5.625 -1 9 C-2.32 8.67 -3.64 8.34 -5 8 C-3.625 6.5 -3.625 6.5 -2 5 C-1.34 5 -0.68 5 0 5 C0 3.35 0 1.7 0 0 Z " fill="#13B028" transform="translate(92,35)"/>
<path d="M0 0 C0.99 0 1.98 0 3 0 C2.67 4.29 2.34 8.58 2 13 C1.01 12.67 0.02 12.34 -1 12 C-0.34 12 0.32 12 1 12 C0.67 8.04 0.34 4.08 0 0 Z " fill="#003401" transform="translate(41,16)"/>
<path d="M0 0 C0.99 0 1.98 0 3 0 C3 2.66666667 3 5.33333333 3 8 C1.5 6.8125 1.5 6.8125 0 5 C-0.1875 2.3125 -0.1875 2.3125 0 0 Z " fill="#1EB932" transform="translate(76,39)"/>
<path d="M0 0 C0 2.64 0 5.28 0 8 C-0.99 8 -1.98 8 -3 8 C-3 5.69 -3 3.38 -3 1 C-1 0 -1 0 0 0 Z " fill="#18C932" transform="translate(14,21)"/>
<path d="M0 0 C0.33 0 0.66 0 1 0 C1 2.64 1 5.28 1 8 C0.67 8 0.34 8 0 8 C0 5.36 0 2.72 0 0 Z " fill="#000101" transform="translate(37,75)"/>
<path d="M0 0 C2 1 2 1 2 1 Z " fill="#020302" transform="translate(30,10)"/>
<path d="" fill="#000200" transform="translate(0,0)"/>
<path d="" fill="#0E0B11" transform="translate(0,0)"/>
</svg>
